# xmcd
#
# Track frame offsets:
#	150
#	8879
#	19763
#	29785
#	41823
#	52502
#	61511
#	70843
#	80364
#	90787
#	100928
#	112056
#	125758
#	134994
#	143414
#	152293
#	162544
#	172911
#	183464
#	194442
#	203695
#	213398
#	225128
#	234954
#	247063
#	257525
#	269983
#	279599
#	292452
#	302995
#	314656
#	324631
#	328849
#	339849
#	344112
#	354642
#	363148
#	367342
#
# Disc length: 5021 seconds
#
# Revision: 0
# Processed by: cddbd v1.5.2PL0 Copyright (c) Steve Scherf et al.
# Submitted via: EasyCDDAExtractor 15.3.0.1
#
DISCID=4e139b26
DTITLE=Mack Warner - Baby Squeeze Me
DYEAR=1900
DGENRE=
TTITLE0=Baby Let's Play House
TTITLE1=Baby Squeeze Me
TTITLE2=Falling In Love
TTITLE3=Is It Wrong (For Loving You)
TTITLE4=Lonesome For You Now
TTITLE5=Down By The Waterfalls
TTITLE6=Say Those Love Words
TTITLE7=I've Found Love
TTITLE8=Prison Of Love
TTITLE9=Now I'm Living
TTITLE10=Oh You Better Be Careful
TTITLE11=I'll Run Back To You
TTITLE12=Roc A Chicka
TTITLE13=Ubangi Stomp
TTITLE14=Anything For You
TTITLE15=Won't Do That No More
TTITLE16=Suddenly
TTITLE17=Since I Lost You
TTITLE18=Just Living My Life
TTITLE19=Someone Somewhere
TTITLE20=Too Bashful
TTITLE21=Going Away To School
TTITLE22=Baby Ain't Moving Me Anymore
TTITLE23=I Heard You Crying In Your Sleep
TTITLE24=That's My Heart's Desire
TTITLE25=I Don't Know Why
TTITLE26=Tell Me Darlin'
TTITLE27=My Ann
TTITLE28=What A Feelin'
TTITLE29=My Love For You
TTITLE30=First Chance I Get
TTITLE31=Mary Carter Paint
TTITLE32=Your Fool
TTITLE33=Mary Carter Paint (2)
TTITLE34=Yes There's A Reason
TTITLE35=I'm Older And Wiser
TTITLE36=Mary Carter Paint (3)
TTITLE37=Honky Tonk Song
EXTD=
EXTT0=
EXTT1=
EXTT2=
EXTT3=
EXTT4=
EXTT5=
EXTT6=
EXTT7=
EXTT8=
EXTT9=
EXTT10=
EXTT11=
EXTT12=
EXTT13=
EXTT14=
EXTT15=
EXTT16=
EXTT17=
EXTT18=
EXTT19=
EXTT20=
EXTT21=
EXTT22=
EXTT23=
EXTT24=
EXTT25=
EXTT26=
EXTT27=
EXTT28=
EXTT29=
EXTT30=
EXTT31=
EXTT32=
EXTT33=
EXTT34=
EXTT35=
EXTT36=
EXTT37=
PLAYORDER=
